<svg id="e" xmlns="http://www.w3.org/2000/svg" viewBox="0 0 1800 725"><defs><style>.cls-1{fill:#fff;fill-rule:evenodd;}.cls-2{fill:none;stroke:#fff;stroke-width:50px;}</style></defs><path id="e3" class="cls-1" d="M1388.42,146.16h265v77h-265Z" transform="translate(-1.42 -0.16)"/><path id="e2" class="cls-1" d="M1388.42,503.16h265v77h-265Z" transform="translate(-1.42 -0.16)"/><path id="e1" class="cls-1" d="M1388.42,324.16h237v77h-237Z" transform="translate(-1.42 -0.16)"/><path id="d" class="cls-1" d="M942.42,146.16v77h61a140.37,140.37,0,0,1,0,280h-61v77a290.6,290.6,0,0,0,61,0c46.36-4.89,82.06-18.46,104-32,55.46-34.22,105.23-103.65,103-191-1.77-69.31-36.67-130.43-85-167-26-19.69-57.85-33.38-91-40a227.79,227.79,0,0,0-31-4Z" transform="translate(-1.42 -0.16)"/><path id="i" class="cls-1" d="M685.42,146.16h78v434h-78Z" transform="translate(-1.42 -0.16)"/><path id="h" class="cls-1" d="M183.42,146.16h78v178h243v256h-78v-179h-165v179h-78Z" transform="translate(-1.42 -0.16)"/><rect id="Прямоугольник_1" data-name="Прямоугольник 1" class="cls-2" x="25" y="25" width="1750" height="675"/></svg>